# xmcd CD database file
#
# Track frame offsets:
#	150
#	33402
#	63829
#	130337
#	190420
#	203256
#	227977
#	272819
#	290956
#	319996
#
# Disc length: 4604 seconds
#
# Revision: 2
# Processed by: cddbd v1.5.2PL0 Copyright (c) Steve Scherf et al.
# Submitted via: CDex 1.51
#
DISCID=9a11fa0a
DTITLE=Liszt - L'Oeuvre pour Piano - France Clidat  [CD 06-14]
DYEAR=1970
DGENRE=Piano
TTITLE0=Harmonies poétiques et religieuses, S.173 - N°01 - Invocation
TTITLE1=Harmonies poétiques et religieuses, S.173 - N°02 - Ave Maria
TTITLE2=Harmonies poétiques et religieuses, S.173 - N°03 - Bénédiction de Dieu dans la solitude
TTITLE3=Harmonies poétiques et religieuses, S.173 - N°04 - Pensée des morts
TTITLE4=Harmonies poétiques et religieuses, S.173 - N°05 - Pater Noster
TTITLE5=Harmonies poétiques et religieuses, S.173 - N°06 - Hymne de l'enfant à son réveil
TTITLE6=Harmonies poétiques et religieuses, S.173 - N°07 - Funérailles
TTITLE7=Harmonies poétiques et religieuses, S.173 - N°08 - Miserere  (d'après Palestrina)
TTITLE8=Harmonies poétiques et religieuses, S.173 - N°09 - Andante Lagrimoso
TTITLE9=Harmonies poétiques et religieuses, S.173 - N°10 - Cantique d'amour
EXTD=YEAR: 1970
EXTT0=
EXTT1=
EXTT2=
EXTT3=
EXTT4=
EXTT5=
EXTT6=
EXTT7=
EXTT8=
EXTT9=
PLAYORDER=
